<svg xmlns="http://www.w3.org/2000/svg" viewBox="0 0 60 30">
  <defs>
    <clipPath id="tl"><polygon points="0,0 30,0 30,15 0,30"/></clipPath>
    <clipPath id="tr"><polygon points="60,0 30,0 30,15 60,30"/></clipPath>
    <clipPath id="bl"><polygon points="0,30 30,30 30,15 0,0"/></clipPath>
    <clipPath id="br"><polygon points="60,30 30,30 30,15 60,0"/></clipPath>
  </defs>
  <rect width="60" height="30" fill="#012169"/>
  <path d="M0,0 L60,30 M60,0 L0,30" stroke="#fff" stroke-width="6"/>
  <path d="M0,0 L60,30" stroke="#C8102E" stroke-width="4" clip-path="url(#tl)"/>
  <path d="M60,0 L0,30" stroke="#C8102E" stroke-width="4" clip-path="url(#tr)"/>
  <path d="M0,30 L60,0" stroke="#C8102E" stroke-width="4" clip-path="url(#bl)"/>
  <path d="M60,30 L0,0" stroke="#C8102E" stroke-width="4" clip-path="url(#br)"/>
  <path d="M30,0 V30 M0,15 H60" stroke="#fff" stroke-width="10"/>
  <path d="M30,0 V30 M0,15 H60" stroke="#C8102E" stroke-width="6"/>
</svg>
