<svg preserveAspectRatio="none" width="100%" height="100%" overflow="visible" style="display: block;" viewBox="0 0 12.5 17.4992" fill="none" xmlns="http://www.w3.org/2000/svg">
<g id="Vector">
<path fill-rule="evenodd" clip-rule="evenodd" d="M0 5.97656C0 2.64896 2.82899 0 6.25 0C9.67101 0 12.5 2.64896 12.5 5.97656C12.5 7.85252 11.4857 10.1735 10.3746 12.1796C9.24688 14.2158 7.94812 16.0503 7.25162 16.9909C7.1367 17.148 6.98642 17.2759 6.81292 17.3642C6.63854 17.4529 6.44565 17.4992 6.25 17.4992C6.05434 17.4992 5.86146 17.4529 5.68708 17.3642C5.51356 17.2759 5.36327 17.148 5.24834 16.9908C4.55187 16.0499 3.2531 14.2147 2.12536 12.1783C1.01432 10.172 0 7.85119 0 5.97656ZM6.25 1.25C3.46007 1.25 1.25 3.39713 1.25 5.97656C1.25 7.50037 2.11068 9.57155 3.21888 11.5727C4.30739 13.5383 5.5682 15.3216 6.25 16.243C6.93177 15.3221 8.1926 13.5394 9.28114 11.574C10.3893 9.57318 11.25 7.50177 11.25 5.97656C11.25 3.39713 9.03993 1.25 6.25 1.25Z" fill="var(--fill-0, #0666C6)"/>
<path fill-rule="evenodd" clip-rule="evenodd" d="M6.25 5C5.55964 5 5 5.55964 5 6.25C5 6.94036 5.55964 7.5 6.25 7.5C6.94036 7.5 7.5 6.94036 7.5 6.25C7.5 5.55964 6.94036 5 6.25 5ZM3.75 6.25C3.75 4.86929 4.86929 3.75 6.25 3.75C7.63071 3.75 8.75 4.86929 8.75 6.25C8.75 7.63071 7.63071 8.75 6.25 8.75C4.86929 8.75 3.75 7.63071 3.75 6.25Z" fill="var(--fill-0, #0666C6)"/>
</g>
</svg>
