<svg width="107" height="54" viewBox="0 0 107 54" fill="none" xmlns="http://www.w3.org/2000/svg">
<path d="M0 12C0 5.37259 5.37258 0 12 0H107V53.9557H12C5.37258 53.9557 0 48.5831 0 41.9557V12Z" fill="#0666C6"/>
<path d="M13.44 29V14.1H16.16V26.6H22.54V29H13.44ZM29.6488 29.24C28.5021 29.24 27.4821 29 26.5888 28.52C25.7088 28.04 25.0154 27.38 24.5088 26.54C24.0021 25.7 23.7488 24.7467 23.7488 23.68V14.1H26.4688V23.54C26.4688 24.1533 26.6021 24.7067 26.8688 25.2C27.1488 25.6933 27.5288 26.08 28.0088 26.36C28.4888 26.6267 29.0354 26.76 29.6488 26.76C30.2754 26.76 30.8221 26.6267 31.2888 26.36C31.7688 26.08 32.1421 25.6933 32.4088 25.2C32.6888 24.7067 32.8288 24.1533 32.8288 23.54V14.1H35.5488V23.68C35.5488 24.7467 35.2954 25.7 34.7888 26.54C34.2821 27.38 33.5821 28.04 32.6888 28.52C31.8088 29 30.7954 29.24 29.6488 29.24ZM37.0442 29L41.9242 21.5L37.0842 14.1H40.2042L44.1642 20.16H42.7242L46.6642 14.1H49.7842L44.9642 21.5L49.8242 29H46.7042L42.7242 22.86H44.1642L40.1642 29H37.0442ZM58.2214 29.24C57.1281 29.24 56.1081 29.0467 55.1614 28.66C54.2147 28.2733 53.3881 27.7333 52.6814 27.04C51.9747 26.3467 51.4214 25.5333 51.0214 24.6C50.6347 23.6533 50.4414 22.6333 50.4414 21.54C50.4414 20.4333 50.6347 19.4133 51.0214 18.48C51.4081 17.5467 51.9547 16.7333 52.6614 16.04C53.3681 15.3467 54.1947 14.8133 55.1414 14.44C56.0881 14.0533 57.1147 13.86 58.2214 13.86C59.3281 13.86 60.3547 14.0533 61.3014 14.44C62.2481 14.8267 63.0747 15.3667 63.7814 16.06C64.4881 16.74 65.0347 17.5467 65.4214 18.48C65.8214 19.4133 66.0214 20.4333 66.0214 21.54C66.0214 22.6333 65.8214 23.6533 65.4214 24.6C65.0214 25.5333 64.4681 26.3467 63.7614 27.04C63.0547 27.7333 62.2281 28.2733 61.2814 28.66C60.3481 29.0467 59.3281 29.24 58.2214 29.24ZM58.2214 26.76C58.9547 26.76 59.6281 26.6333 60.2414 26.38C60.8547 26.1133 61.3881 25.7467 61.8414 25.28C62.3081 24.8133 62.6614 24.26 62.9014 23.62C63.1547 22.98 63.2814 22.2867 63.2814 21.54C63.2814 20.7933 63.1547 20.1067 62.9014 19.48C62.6614 18.84 62.3081 18.2867 61.8414 17.82C61.3881 17.34 60.8547 16.9733 60.2414 16.72C59.6281 16.4667 58.9547 16.34 58.2214 16.34C57.5014 16.34 56.8347 16.4667 56.2214 16.72C55.6081 16.9733 55.0681 17.34 54.6014 17.82C54.1481 18.2867 53.7947 18.84 53.5414 19.48C53.2881 20.1067 53.1614 20.7933 53.1614 21.54C53.1614 22.2867 53.2881 22.98 53.5414 23.62C53.7947 24.26 54.1481 24.8133 54.6014 25.28C55.0681 25.7467 55.6081 26.1133 56.2214 26.38C56.8347 26.6333 57.5014 26.76 58.2214 26.76ZM68.44 29V14.1H73.98C74.9933 14.1 75.8867 14.2867 76.66 14.66C77.4467 15.02 78.06 15.5533 78.5 16.26C78.94 16.9533 79.16 17.8 79.16 18.8C79.16 19.8267 78.9133 20.7 78.42 21.42C77.94 22.14 77.2867 22.6733 76.46 23.02L79.88 29H76.8L73.14 22.46L74.9 23.5H71.16V29H68.44ZM71.16 21.1H74.02C74.5133 21.1 74.94 21.0067 75.3 20.82C75.66 20.62 75.94 20.3467 76.14 20C76.34 19.6533 76.44 19.2533 76.44 18.8C76.44 18.3333 76.34 17.9333 76.14 17.6C75.94 17.2533 75.66 16.9867 75.3 16.8C74.94 16.6 74.5133 16.5 74.02 16.5H71.16V21.1ZM80.4427 29L85.5827 14.1H89.1027L94.2427 29H91.2827L90.2227 25.8H84.4627L83.3827 29H80.4427ZM85.2427 23.4H89.4427L86.9627 15.98H87.7227L85.2427 23.4Z" fill="#EAEBEC"/>
<path d="M18.8777 43.9561V37.9961H21.0457C21.4457 37.9961 21.7977 38.0707 22.1017 38.2201C22.4057 38.3641 22.6431 38.5774 22.8137 38.8601C22.9897 39.1374 23.0777 39.4707 23.0777 39.8601C23.0777 40.2707 22.9737 40.6227 22.7657 40.9161C22.5631 41.2094 22.2884 41.4227 21.9417 41.5561L23.3177 43.9561H22.2457L20.7817 41.3561L21.3977 41.7161H19.8217V43.9561H18.8777ZM19.8217 40.8761H21.0617C21.2804 40.8761 21.4697 40.8334 21.6297 40.7481C21.7897 40.6627 21.9124 40.5454 21.9977 40.3961C22.0884 40.2414 22.1337 40.0601 22.1337 39.8521C22.1337 39.6441 22.0884 39.4654 21.9977 39.3161C21.9124 39.1614 21.7897 39.0441 21.6297 38.9641C21.4697 38.8787 21.2804 38.8361 21.0617 38.8361H19.8217V40.8761ZM25.8139 44.0521C25.3819 44.0521 24.9979 43.9534 24.6619 43.7561C24.3312 43.5534 24.0726 43.2814 23.8859 42.9401C23.6992 42.5934 23.6059 42.2067 23.6059 41.7801C23.6059 41.3427 23.6992 40.9561 23.8859 40.6201C24.0779 40.2841 24.3339 40.0201 24.6539 39.8281C24.9739 39.6307 25.3366 39.5321 25.7419 39.5321C26.0672 39.5321 26.3579 39.5881 26.6139 39.7001C26.8699 39.8121 27.0859 39.9667 27.2619 40.1641C27.4379 40.3561 27.5712 40.5774 27.6619 40.8281C27.7579 41.0787 27.8059 41.3454 27.8059 41.6281C27.8059 41.6974 27.8032 41.7694 27.7979 41.8441C27.7926 41.9187 27.7819 41.9881 27.7659 42.0521H24.3179V41.3321H27.2539L26.8219 41.6601C26.8752 41.3987 26.8566 41.1667 26.7659 40.9641C26.6806 40.7561 26.5472 40.5934 26.3659 40.4761C26.1899 40.3534 25.9819 40.2921 25.7419 40.2921C25.5019 40.2921 25.2886 40.3534 25.1019 40.4761C24.9152 40.5934 24.7712 40.7641 24.6699 40.9881C24.5686 41.2067 24.5286 41.4734 24.5499 41.7881C24.5232 42.0814 24.5632 42.3374 24.6699 42.5561C24.7819 42.7747 24.9366 42.9454 25.1339 43.0681C25.3366 43.1907 25.5659 43.2521 25.8219 43.2521C26.0832 43.2521 26.3046 43.1934 26.4859 43.0761C26.6726 42.9587 26.8192 42.8067 26.9259 42.6201L27.6619 42.9801C27.5766 43.1827 27.4432 43.3667 27.2619 43.5321C27.0859 43.6921 26.8726 43.8201 26.6219 43.9161C26.3766 44.0067 26.1072 44.0521 25.8139 44.0521ZM28.6882 43.9561V39.6281H29.5922V43.9561H28.6882ZM28.6882 39.0361V37.9961H29.5922V39.0361H28.6882ZM30.6491 43.9561V39.6281H31.5131V40.4761L31.4091 40.3641C31.5158 40.0921 31.6864 39.8867 31.9211 39.7481C32.1558 39.6041 32.4278 39.5321 32.7371 39.5321C33.0571 39.5321 33.3398 39.6014 33.5851 39.7401C33.8304 39.8787 34.0224 40.0707 34.1611 40.3161C34.2998 40.5614 34.3691 40.8441 34.3691 41.1641V43.9561H33.4731V41.4041C33.4731 41.1854 33.4331 41.0014 33.3531 40.8521C33.2731 40.6974 33.1584 40.5801 33.0091 40.5001C32.8651 40.4147 32.6998 40.3721 32.5131 40.3721C32.3264 40.3721 32.1584 40.4147 32.0091 40.5001C31.8651 40.5801 31.7531 40.6974 31.6731 40.8521C31.5931 41.0067 31.5531 41.1907 31.5531 41.4041V43.9561H30.6491ZM35.3366 43.9561V39.6281H36.2406V43.9561H35.3366ZM35.3366 39.0361V37.9961H36.2406V39.0361H35.3366ZM39.3855 45.7161C39.0709 45.7161 38.7802 45.6654 38.5135 45.5641C38.2469 45.4627 38.0175 45.3214 37.8255 45.1401C37.6335 44.9641 37.4895 44.7561 37.3935 44.5161L38.2255 44.1721C38.3002 44.3747 38.4362 44.5427 38.6335 44.6761C38.8362 44.8094 39.0842 44.8761 39.3775 44.8761C39.6069 44.8761 39.8122 44.8307 39.9935 44.7401C40.1749 44.6547 40.3189 44.5267 40.4255 44.3561C40.5322 44.1907 40.5855 43.9907 40.5855 43.7561V42.7801L40.7455 42.9641C40.5962 43.2414 40.3882 43.4521 40.1215 43.5961C39.8602 43.7401 39.5642 43.8121 39.2335 43.8121C38.8335 43.8121 38.4735 43.7187 38.1535 43.5321C37.8335 43.3454 37.5802 43.0894 37.3935 42.7641C37.2122 42.4387 37.1215 42.0734 37.1215 41.6681C37.1215 41.2574 37.2122 40.8921 37.3935 40.5721C37.5802 40.2521 37.8309 39.9987 38.1455 39.8121C38.4602 39.6254 38.8202 39.5321 39.2255 39.5321C39.5562 39.5321 39.8495 39.6041 40.1055 39.7481C40.3669 39.8867 40.5802 40.0894 40.7455 40.3561L40.6255 40.5801V39.6281H41.4815V43.7561C41.4815 44.1294 41.3909 44.4627 41.2095 44.7561C41.0335 45.0547 40.7882 45.2894 40.4735 45.4601C40.1589 45.6307 39.7962 45.7161 39.3855 45.7161ZM39.3375 42.9721C39.5775 42.9721 39.7909 42.9161 39.9775 42.8041C40.1642 42.6867 40.3109 42.5321 40.4175 42.3401C40.5295 42.1427 40.5855 41.9214 40.5855 41.6761C40.5855 41.4307 40.5295 41.2094 40.4175 41.0121C40.3055 40.8147 40.1562 40.6601 39.9695 40.5481C39.7829 40.4307 39.5722 40.3721 39.3375 40.3721C39.0922 40.3721 38.8735 40.4307 38.6815 40.5481C38.4895 40.6601 38.3375 40.8147 38.2255 41.0121C38.1189 41.2041 38.0655 41.4254 38.0655 41.6761C38.0655 41.9161 38.1189 42.1347 38.2255 42.3321C38.3375 42.5294 38.4895 42.6867 38.6815 42.8041C38.8735 42.9161 39.0922 42.9721 39.3375 42.9721ZM44.0837 44.0521C43.7584 44.0521 43.4731 43.9801 43.2277 43.8361C42.9824 43.6867 42.7904 43.4814 42.6517 43.2201C42.5184 42.9534 42.4517 42.6467 42.4517 42.3001V39.6281H43.3557V42.2201C43.3557 42.4174 43.3957 42.5907 43.4757 42.7401C43.5557 42.8894 43.6677 43.0067 43.8117 43.0921C43.9557 43.1721 44.1211 43.2121 44.3077 43.2121C44.4997 43.2121 44.6677 43.1694 44.8117 43.0841C44.9557 42.9987 45.0677 42.8787 45.1477 42.7241C45.2331 42.5694 45.2757 42.3881 45.2757 42.1801V39.6281H46.1717V43.9561H45.3157V43.1081L45.4117 43.2201C45.3104 43.4867 45.1424 43.6921 44.9077 43.8361C44.6731 43.9801 44.3984 44.0521 44.0837 44.0521ZM47.2272 43.9561V39.6281H48.0912V40.4761L47.9872 40.3641C48.0939 40.0921 48.2646 39.8867 48.4992 39.7481C48.7339 39.6041 49.0059 39.5321 49.3152 39.5321C49.6352 39.5321 49.9179 39.6014 50.1632 39.7401C50.4086 39.8787 50.6006 40.0707 50.7392 40.3161C50.8779 40.5614 50.9472 40.8441 50.9472 41.1641V43.9561H50.0512V41.4041C50.0512 41.1854 50.0112 41.0014 49.9312 40.8521C49.8512 40.6974 49.7366 40.5801 49.5872 40.5001C49.4432 40.4147 49.2779 40.3721 49.0912 40.3721C48.9046 40.3721 48.7366 40.4147 48.5872 40.5001C48.4432 40.5801 48.3312 40.6974 48.2512 40.8521C48.1712 41.0067 48.1312 41.1907 48.1312 41.4041V43.9561H47.2272ZM54.0027 45.7161C53.6881 45.7161 53.3974 45.6654 53.1307 45.5641C52.8641 45.4627 52.6347 45.3214 52.4427 45.1401C52.2507 44.9641 52.1067 44.7561 52.0107 44.5161L52.8427 44.1721C52.9174 44.3747 53.0534 44.5427 53.2507 44.6761C53.4534 44.8094 53.7014 44.8761 53.9947 44.8761C54.2241 44.8761 54.4294 44.8307 54.6107 44.7401C54.7921 44.6547 54.9361 44.5267 55.0427 44.3561C55.1494 44.1907 55.2027 43.9907 55.2027 43.7561V42.7801L55.3627 42.9641C55.2134 43.2414 55.0054 43.4521 54.7387 43.5961C54.4774 43.7401 54.1814 43.8121 53.8507 43.8121C53.4507 43.8121 53.0907 43.7187 52.7707 43.5321C52.4507 43.3454 52.1974 43.0894 52.0107 42.7641C51.8294 42.4387 51.7387 42.0734 51.7387 41.6681C51.7387 41.2574 51.8294 40.8921 52.0107 40.5721C52.1974 40.2521 52.4481 39.9987 52.7627 39.8121C53.0774 39.6254 53.4374 39.5321 53.8427 39.5321C54.1734 39.5321 54.4667 39.6041 54.7227 39.7481C54.9841 39.8867 55.1974 40.0894 55.3627 40.3561L55.2427 40.5801V39.6281H56.0987V43.7561C56.0987 44.1294 56.0081 44.4627 55.8267 44.7561C55.6507 45.0547 55.4054 45.2894 55.0907 45.4601C54.7761 45.6307 54.4134 45.7161 54.0027 45.7161ZM53.9547 42.9721C54.1947 42.9721 54.4081 42.9161 54.5947 42.8041C54.7814 42.6867 54.9281 42.5321 55.0347 42.3401C55.1467 42.1427 55.2027 41.9214 55.2027 41.6761C55.2027 41.4307 55.1467 41.2094 55.0347 41.0121C54.9227 40.8147 54.7734 40.6601 54.5867 40.5481C54.4001 40.4307 54.1894 40.3721 53.9547 40.3721C53.7094 40.3721 53.4907 40.4307 53.2987 40.5481C53.1067 40.6601 52.9547 40.8147 52.8427 41.0121C52.7361 41.2041 52.6827 41.4254 52.6827 41.6761C52.6827 41.9161 52.7361 42.1347 52.8427 42.3321C52.9547 42.5294 53.1067 42.6867 53.2987 42.8041C53.4907 42.9161 53.7094 42.9721 53.9547 42.9721ZM58.7569 44.0521C58.3142 44.0521 57.9249 43.9427 57.5889 43.7241C57.2582 43.5054 57.0262 43.2121 56.8929 42.8441L57.5889 42.5161C57.7062 42.7614 57.8662 42.9561 58.0689 43.1001C58.2769 43.2441 58.5062 43.3161 58.7569 43.3161C58.9702 43.3161 59.1436 43.2681 59.2769 43.1721C59.4102 43.0761 59.4769 42.9454 59.4769 42.7801C59.4769 42.6734 59.4476 42.5881 59.3889 42.5241C59.3302 42.4547 59.2556 42.3987 59.1649 42.3561C59.0796 42.3134 58.9916 42.2814 58.9009 42.2601L58.2209 42.0681C57.8476 41.9614 57.5676 41.8014 57.3809 41.5881C57.1996 41.3694 57.1089 41.1161 57.1089 40.8281C57.1089 40.5667 57.1756 40.3401 57.3089 40.1481C57.4422 39.9507 57.6262 39.7987 57.8609 39.6921C58.0956 39.5854 58.3596 39.5321 58.6529 39.5321C59.0476 39.5321 59.3996 39.6307 59.7089 39.8281C60.0182 40.0201 60.2369 40.2894 60.3649 40.6361L59.6689 40.9641C59.5836 40.7561 59.4476 40.5907 59.2609 40.4681C59.0796 40.3454 58.8742 40.2841 58.6449 40.2841C58.4476 40.2841 58.2902 40.3321 58.1729 40.4281C58.0556 40.5187 57.9969 40.6387 57.9969 40.7881C57.9969 40.8894 58.0236 40.9747 58.0769 41.0441C58.1302 41.1081 58.1996 41.1614 58.2849 41.2041C58.3702 41.2414 58.4582 41.2734 58.5489 41.3001L59.2529 41.5081C59.6102 41.6094 59.8849 41.7694 60.0769 41.9881C60.2689 42.2014 60.3649 42.4574 60.3649 42.7561C60.3649 43.0121 60.2956 43.2387 60.1569 43.4361C60.0236 43.6281 59.8369 43.7801 59.5969 43.8921C59.3569 43.9987 59.0769 44.0521 58.7569 44.0521ZM62.8507 44.0521C62.408 44.0521 62.0187 43.9427 61.6827 43.7241C61.352 43.5054 61.12 43.2121 60.9867 42.8441L61.6827 42.5161C61.8 42.7614 61.96 42.9561 62.1627 43.1001C62.3707 43.2441 62.6 43.3161 62.8507 43.3161C63.064 43.3161 63.2373 43.2681 63.3707 43.1721C63.504 43.0761 63.5707 42.9454 63.5707 42.7801C63.5707 42.6734 63.5413 42.5881 63.4827 42.5241C63.424 42.4547 63.3493 42.3987 63.2587 42.3561C63.1733 42.3134 63.0853 42.2814 62.9947 42.2601L62.3147 42.0681C61.9413 41.9614 61.6613 41.8014 61.4747 41.5881C61.2933 41.3694 61.2027 41.1161 61.2027 40.8281C61.2027 40.5667 61.2693 40.3401 61.4027 40.1481C61.536 39.9507 61.72 39.7987 61.9547 39.6921C62.1893 39.5854 62.4533 39.5321 62.7467 39.5321C63.1413 39.5321 63.4933 39.6307 63.8027 39.8281C64.112 40.0201 64.3307 40.2894 64.4587 40.6361L63.7627 40.9641C63.6773 40.7561 63.5413 40.5907 63.3547 40.4681C63.1733 40.3454 62.968 40.2841 62.7387 40.2841C62.5413 40.2841 62.384 40.3321 62.2667 40.4281C62.1493 40.5187 62.0907 40.6387 62.0907 40.7881C62.0907 40.8894 62.1173 40.9747 62.1707 41.0441C62.224 41.1081 62.2933 41.1614 62.3787 41.2041C62.464 41.2414 62.552 41.2734 62.6427 41.3001L63.3467 41.5081C63.704 41.6094 63.9787 41.7694 64.1707 41.9881C64.3627 42.2014 64.4587 42.4574 64.4587 42.7561C64.4587 43.0121 64.3893 43.2387 64.2507 43.4361C64.1173 43.6281 63.9307 43.7801 63.6907 43.8921C63.4507 43.9987 63.1707 44.0521 62.8507 44.0521ZM67.3764 44.0521C66.9444 44.0521 66.5604 43.9534 66.2244 43.7561C65.8937 43.5534 65.6351 43.2814 65.4484 42.9401C65.2617 42.5934 65.1684 42.2067 65.1684 41.7801C65.1684 41.3427 65.2617 40.9561 65.4484 40.6201C65.6404 40.2841 65.8964 40.0201 66.2164 39.8281C66.5364 39.6307 66.8991 39.5321 67.3044 39.5321C67.6297 39.5321 67.9204 39.5881 68.1764 39.7001C68.4324 39.8121 68.6484 39.9667 68.8244 40.1641C69.0004 40.3561 69.1337 40.5774 69.2244 40.8281C69.3204 41.0787 69.3684 41.3454 69.3684 41.6281C69.3684 41.6974 69.3657 41.7694 69.3604 41.8441C69.3551 41.9187 69.3444 41.9881 69.3284 42.0521H65.8804V41.3321H68.8164L68.3844 41.6601C68.4377 41.3987 68.4191 41.1667 68.3284 40.9641C68.2431 40.7561 68.1097 40.5934 67.9284 40.4761C67.7524 40.3534 67.5444 40.2921 67.3044 40.2921C67.0644 40.2921 66.8511 40.3534 66.6644 40.4761C66.4777 40.5934 66.3337 40.7641 66.2324 40.9881C66.1311 41.2067 66.0911 41.4734 66.1124 41.7881C66.0857 42.0814 66.1257 42.3374 66.2324 42.5561C66.3444 42.7747 66.4991 42.9454 66.6964 43.0681C66.8991 43.1907 67.1284 43.2521 67.3844 43.2521C67.6457 43.2521 67.8671 43.1934 68.0484 43.0761C68.2351 42.9587 68.3817 42.8067 68.4884 42.6201L69.2244 42.9801C69.1391 43.1827 69.0057 43.3667 68.8244 43.5321C68.6484 43.6921 68.4351 43.8201 68.1844 43.9161C67.9391 44.0067 67.6697 44.0521 67.3764 44.0521ZM70.2507 43.9561V39.6281H71.1147V40.5001L71.0347 40.3721C71.1307 40.0894 71.2853 39.8867 71.4987 39.7641C71.712 39.6361 71.968 39.5721 72.2667 39.5721H72.5307V40.3961H72.1547C71.856 40.3961 71.6133 40.4894 71.4267 40.6761C71.2453 40.8574 71.1547 41.1187 71.1547 41.4601V43.9561H70.2507ZM74.4051 43.9561L72.7091 39.6281H73.6931L74.9971 43.1561H74.6371L75.9411 39.6281H76.9331L75.2291 43.9561H74.4051ZM77.5475 43.9561V39.6281H78.4515V43.9561H77.5475ZM77.5475 39.0361V37.9961H78.4515V39.0361H77.5475ZM81.5645 44.0521C81.1325 44.0521 80.7485 43.9534 80.4125 43.7561C80.0818 43.5534 79.8178 43.2814 79.6205 42.9401C79.4285 42.5987 79.3325 42.2121 79.3325 41.7801C79.3325 41.3534 79.4285 40.9694 79.6205 40.6281C79.8125 40.2867 80.0765 40.0201 80.4125 39.8281C80.7485 39.6307 81.1325 39.5321 81.5645 39.5321C81.8578 39.5321 82.1325 39.5854 82.3885 39.6921C82.6445 39.7934 82.8658 39.9347 83.0525 40.1161C83.2445 40.2974 83.3858 40.5081 83.4765 40.7481L82.6845 41.1161C82.5938 40.8921 82.4471 40.7134 82.2445 40.5801C82.0471 40.4414 81.8205 40.3721 81.5645 40.3721C81.3191 40.3721 81.0978 40.4334 80.9005 40.5561C80.7085 40.6734 80.5565 40.8414 80.4445 41.0601C80.3325 41.2734 80.2765 41.5161 80.2765 41.7881C80.2765 42.0601 80.3325 42.3054 80.4445 42.5241C80.5565 42.7374 80.7085 42.9054 80.9005 43.0281C81.0978 43.1507 81.3191 43.2121 81.5645 43.2121C81.8258 43.2121 82.0525 43.1454 82.2445 43.0121C82.4418 42.8734 82.5885 42.6894 82.6845 42.4601L83.4765 42.8361C83.3911 43.0654 83.2525 43.2734 83.0605 43.4601C82.8738 43.6414 82.6525 43.7854 82.3965 43.8921C82.1405 43.9987 81.8631 44.0521 81.5645 44.0521ZM86.392 44.0521C85.96 44.0521 85.576 43.9534 85.24 43.7561C84.9094 43.5534 84.6507 43.2814 84.464 42.9401C84.2774 42.5934 84.184 42.2067 84.184 41.7801C84.184 41.3427 84.2774 40.9561 84.464 40.6201C84.656 40.2841 84.912 40.0201 85.232 39.8281C85.552 39.6307 85.9147 39.5321 86.32 39.5321C86.6454 39.5321 86.936 39.5881 87.192 39.7001C87.448 39.8121 87.664 39.9667 87.84 40.1641C88.016 40.3561 88.1494 40.5774 88.24 40.8281C88.336 41.0787 88.384 41.3454 88.384 41.6281C88.384 41.6974 88.3814 41.7694 88.376 41.8441C88.3707 41.9187 88.36 41.9881 88.344 42.0521H84.896V41.3321H87.832L87.4 41.6601C87.4534 41.3987 87.4347 41.1667 87.344 40.9641C87.2587 40.7561 87.1254 40.5934 86.944 40.4761C86.768 40.3534 86.56 40.2921 86.32 40.2921C86.08 40.2921 85.8667 40.3534 85.68 40.4761C85.4934 40.5934 85.3494 40.7641 85.248 40.9881C85.1467 41.2067 85.1067 41.4734 85.128 41.7881C85.1014 42.0814 85.1414 42.3374 85.248 42.5561C85.36 42.7747 85.5147 42.9454 85.712 43.0681C85.9147 43.1907 86.144 43.2521 86.4 43.2521C86.6614 43.2521 86.8827 43.1934 87.064 43.0761C87.2507 42.9587 87.3974 42.8067 87.504 42.6201L88.24 42.9801C88.1547 43.1827 88.0214 43.3667 87.84 43.5321C87.664 43.6921 87.4507 43.8201 87.2 43.9161C86.9547 44.0067 86.6854 44.0521 86.392 44.0521Z" fill="#EAEBEC"/>
</svg>
